<svg width="24" height="24" viewBox="0 0 24 24" fill="none" xmlns="http://www.w3.org/2000/svg">
<rect width="24" height="24"/>
<path d="M12 8.25C12.7956 8.25 13.5587 7.93393 14.1213 7.37132C14.6839 6.80871 15 6.04565 15 5.25C15 4.45435 14.6839 3.69129 14.1213 3.12868C13.5587 2.56607 12.7956 2.25 12 2.25C11.2044 2.25 10.4413 2.56607 9.87868 3.12868C9.31607 3.69129 9 4.45435 9 5.25C9 6.04565 9.31607 6.80871 9.87868 7.37132C10.4413 7.93393 11.2044 8.25 12 8.25V8.25ZM7.5 5.625C7.5 5.96972 7.4321 6.31106 7.30018 6.62954C7.16827 6.94802 6.97491 7.2374 6.73116 7.48116C6.4874 7.72491 6.19802 7.91827 5.87954 8.05018C5.56106 8.1821 5.21972 8.25 4.875 8.25C4.53028 8.25 4.18894 8.1821 3.87046 8.05018C3.55198 7.91827 3.2626 7.72491 3.01885 7.48116C2.77509 7.2374 2.58173 6.94802 2.44982 6.62954C2.3179 6.31106 2.25 5.96972 2.25 5.625C2.25 4.92881 2.52656 4.26113 3.01885 3.76884C3.51113 3.27656 4.17881 3 4.875 3C5.57119 3 6.23887 3.27656 6.73116 3.76884C7.22344 4.26113 7.5 4.92881 7.5 5.625V5.625ZM21.75 5.625C21.75 5.96972 21.6821 6.31106 21.5502 6.62954C21.4183 6.94802 21.2249 7.2374 20.9812 7.48116C20.7374 7.72491 20.448 7.91827 20.1295 8.05018C19.8111 8.1821 19.4697 8.25 19.125 8.25C18.7803 8.25 18.4389 8.1821 18.1205 8.05018C17.802 7.91827 17.5126 7.72491 17.2688 7.48116C17.0251 7.2374 16.8317 6.94802 16.6998 6.62954C16.5679 6.31106 16.5 5.96972 16.5 5.625C16.5 4.92881 16.7766 4.26113 17.2688 3.76884C17.7611 3.27656 18.4288 3 19.125 3C19.8212 3 20.4889 3.27656 20.9812 3.76884C21.4734 4.26113 21.75 4.92881 21.75 5.625V5.625ZM7.03275 9.75C6.60597 10.2816 6.37387 10.9433 6.375 11.625V17.25C6.375 18.1763 6.5985 19.05 6.99525 19.8203C6.42365 20.1208 5.78412 20.2687 5.13861 20.2495C4.49309 20.2303 3.86347 20.0447 3.31073 19.7108C2.75799 19.3768 2.30086 18.9057 1.98363 18.3432C1.66639 17.7807 1.49981 17.1458 1.5 16.5V11.625C1.5 11.1277 1.69754 10.6508 2.04917 10.2992C2.40081 9.94754 2.87772 9.75 3.375 9.75H7.03275V9.75ZM17.0048 19.8203C17.4137 19.0253 17.6263 18.144 17.625 17.25V11.625C17.625 10.9155 17.379 10.2638 16.9672 9.75H20.625C21.1223 9.75 21.5992 9.94754 21.9508 10.2992C22.3025 10.6508 22.5 11.1277 22.5 11.625V16.5C22.5002 17.1458 22.3336 17.7807 22.0164 18.3432C21.6991 18.9057 21.242 19.3768 20.6893 19.7108C20.1365 20.0447 19.5069 20.2303 18.8614 20.2495C18.2159 20.2687 17.5763 20.1208 17.0048 19.8203V19.8203ZM9.375 9.75C8.87772 9.75 8.40081 9.94754 8.04917 10.2992C7.69754 10.6508 7.5 11.1277 7.5 11.625V17.25C7.5 18.4435 7.97411 19.5881 8.81802 20.432C9.66193 21.2759 10.8065 21.75 12 21.75C13.1935 21.75 14.3381 21.2759 15.182 20.432C16.0259 19.5881 16.5 18.4435 16.5 17.25V11.625C16.5 11.1277 16.3025 10.6508 15.9508 10.2992C15.5992 9.94754 15.1223 9.75 14.625 9.75H9.375Z" fill="currentColor"/>
</svg>
