<svg width="24" height="24" viewBox="0 0 24 24" fill="none" xmlns="http://www.w3.org/2000/svg">
<rect width="24" height="24"/>
<path d="M13.9005 2.70495C14.0636 2.80601 14.2032 2.94013 14.3093 3.09767C14.4154 3.25521 14.4854 3.43227 14.5143 3.61611C14.5736 3.98794 14.7201 4.34493 14.9422 4.65896C15.1643 4.973 15.4559 5.2355 15.7942 5.42579C16.1153 5.6199 16.474 5.74298 16.8438 5.78596C17.2135 5.82894 17.5849 5.79072 17.9305 5.67412C18.2138 5.54795 18.5393 5.53047 18.8447 5.62504C19.15 5.71961 19.4135 5.91956 19.5845 6.18645C20.2415 6.98079 20.7675 7.86779 21.1424 8.81339C21.2462 9.05872 21.27 9.32636 21.2103 9.57872C21.1507 9.83108 21.0107 10.0555 20.81 10.2204C20.5206 10.4501 20.29 10.7419 20.1349 11.0748C19.9799 11.4078 19.9044 11.7734 19.9137 12.1451C19.9231 12.5169 20.0172 12.8855 20.1892 13.2242C20.3612 13.5629 20.6067 13.8631 20.908 14.1032C21.1216 14.2739 21.2773 14.5039 21.3529 14.7603C21.4284 15.0167 21.4199 15.2864 21.3285 15.5309C20.9751 16.5584 20.4282 17.5057 19.715 18.3255C19.5442 18.511 19.3171 18.6387 19.0641 18.6917C18.8111 18.7446 18.5443 18.7202 18.2992 18.6217C17.9343 18.4667 17.5413 18.3939 17.1504 18.4089C16.7596 18.4239 16.3813 18.5262 16.0446 18.7081C15.7079 18.89 15.4217 19.1466 15.208 19.4582C14.9943 19.7698 14.8588 20.1282 14.8118 20.5057C14.7916 20.773 14.6767 21.0213 14.4867 21.2083C14.2967 21.3953 14.0433 21.5095 13.7696 21.5315C12.7873 21.6714 11.7821 21.6594 10.7904 21.4961C10.5132 21.4647 10.2515 21.3413 10.0496 21.1467C9.84774 20.9521 9.71798 20.6982 9.68229 20.4281C9.63205 20.0334 9.48704 19.652 9.25916 19.3152C9.03128 18.9783 8.72702 18.6957 8.37136 18.4903C8.0157 18.285 7.61876 18.1628 7.21311 18.1339C6.80746 18.105 6.40466 18.1701 6.03776 18.3239C5.7923 18.448 5.50605 18.4815 5.22955 18.4185C4.95306 18.3555 4.70411 18.2001 4.5267 17.9797C3.8402 17.1751 3.28746 16.2725 2.89002 15.3073C2.76027 15.047 2.72975 14.7536 2.8041 14.4815C2.87846 14.2094 3.05266 13.9771 3.29439 13.8276C3.7703 13.4892 4.10214 12.9934 4.23205 12.4266C4.36196 11.8598 4.28169 11.2579 4.00525 10.726C3.8194 10.3756 3.55629 10.0675 3.2357 9.82482C2.96919 9.65465 2.77136 9.39803 2.67933 9.10308C2.58731 8.80813 2.60739 8.49513 2.73583 8.22277C3.12317 7.24823 3.68882 6.35647 4.40616 5.58944C4.57382 5.39478 4.80521 5.26251 5.06425 5.21323C5.32329 5.16395 5.59545 5.20043 5.83829 5.31699C6.20168 5.47966 6.595 5.56014 6.98786 5.55221C7.38072 5.54427 7.76258 5.44813 8.10392 5.27123C8.44527 5.09432 8.73695 4.84139 8.95642 4.53198C9.17588 4.22257 9.31726 3.86498 9.36961 3.48685C9.40815 3.2146 9.53866 2.96632 9.74073 2.78081C9.94281 2.59529 10.2051 2.48297 10.4866 2.46138C11.4605 2.34956 12.4524 2.38315 13.4287 2.56102C13.5882 2.60034 13.7458 2.64839 13.9005 2.70495V2.70495ZM14.8832 13.6799C15.1962 13.1378 15.3333 12.5103 15.2771 11.8768C15.2209 11.2434 14.974 10.6324 14.5676 10.1211C14.1612 9.60987 13.6136 9.22131 12.9939 9.00457C12.3743 8.78783 11.7104 8.75266 11.0864 8.90349C10.4623 9.05433 9.9061 9.3844 9.488 9.85198C9.06989 10.3195 8.80872 10.9036 8.73749 11.5303C8.66627 12.157 8.78819 12.7982 9.08785 13.3728C9.38751 13.9474 9.85144 14.4296 10.421 14.7584C10.7987 14.9784 11.2142 15.1251 11.6435 15.1899C12.0728 15.2548 12.5074 15.2365 12.9222 15.1363C13.337 15.036 13.7239 14.8557 14.0604 14.6057C14.397 14.3558 14.6766 14.0411 14.8832 13.6799V13.6799Z" fill="currentColor"/>
</svg>
