<svg width="20" height="22" viewBox="0 0 20 22" fill="none" xmlns="http://www.w3.org/2000/svg">
<path d="M13.375 16.5556H6.625M13.375 16.5556H19L17.4194 14.9944C17.2071 14.7848 17.0387 14.5358 16.9239 14.2619C16.809 13.9879 16.75 13.6943 16.75 13.3978V9.88889C16.7502 8.50993 16.3175 7.16482 15.5116 6.03876C14.7057 4.91271 13.5662 4.06107 12.25 3.60111V3.22222C12.25 2.63285 12.0129 2.06762 11.591 1.65087C11.169 1.23413 10.5967 1 10 1C9.40326 1 8.83097 1.23413 8.40901 1.65087C7.98705 2.06762 7.75 2.63285 7.75 3.22222V3.60111C5.12875 4.51667 3.25 6.98667 3.25 9.88889V13.3989C3.25 13.9967 3.00925 14.5711 2.58063 14.9944L1 16.5556H6.625H13.375ZM13.375 16.5556V17.6667C13.375 18.5507 13.0194 19.3986 12.3865 20.0237C11.7536 20.6488 10.8951 21 10 21C9.10489 21 8.24645 20.6488 7.61351 20.0237C6.98058 19.3986 6.625 18.5507 6.625 17.6667V16.5556H13.375Z" stroke="currentColor" stroke-width="2" stroke-linecap="round" stroke-linejoin="round"/>
</svg>
