<svg viewBox="0 0 120 40" fill="none" xmlns="http://www.w3.org/2000/svg">
    <path d="M40.9564 39.7412C43.0014 39.7412 44.5745 38.0811 44.5745 35.6304C44.5745 33.1798 43.0014 31.5197 40.9564 31.5197C39.8552 31.5197 39.0686 31.994 38.4394 32.7845H38.3607V28.5156H37.1809V39.5831H38.2034L38.3607 38.4764H38.4394C39.0686 39.2669 39.8552 39.7412 40.9564 39.7412ZM40.8777 38.6345C39.5406 38.6345 38.3607 37.4487 38.3607 35.6304C38.3607 33.8122 39.5406 32.6264 40.8777 32.6264C42.2149 32.6264 43.3947 33.8122 43.3947 35.6304C43.3947 37.4487 42.2149 38.6345 40.8777 38.6345Z" fill="#2B313B"/>
    <path d="M49.4506 39.7412C51.0237 39.7412 51.8102 38.7135 51.8102 38.7135H51.8889L52.0462 39.5831H53.0687V31.6778H51.8889V36.421C51.8889 37.6068 50.8664 38.6345 49.6079 38.6345C48.428 38.6345 47.4842 37.6858 47.4842 36.421V31.6778H46.3043V36.421C46.3043 38.3973 47.6415 39.7412 49.4506 39.7412Z" fill="#2B313B"/>
    <path d="M57.793 39.7412C59.838 39.7412 60.8605 38.7135 60.8605 37.4487C60.8605 36.1838 60.1527 35.4407 58.5795 35.1561L57.2424 34.919C56.2985 34.745 55.9839 34.3656 55.9839 33.8122C55.9839 33.1798 56.5345 32.6264 57.7143 32.6264C58.8942 32.6264 59.6021 33.2588 59.6021 33.9703H60.7819C60.7819 32.7055 59.6021 31.5197 57.7143 31.5197C55.7479 31.5197 54.8041 32.5474 54.8041 33.8122C54.8041 35.0771 55.5906 35.7886 57.0064 36.0257L58.3436 36.2629C59.2874 36.421 59.6807 36.8163 59.6807 37.4487C59.6807 38.0811 59.0515 38.6345 57.793 38.6345C56.5345 38.6345 55.8266 38.0021 55.8266 37.2906H54.6468C54.6468 38.5554 55.8266 39.7412 57.793 39.7412Z" fill="#2B313B"/>
    <path d="M62.5904 39.5831H63.7702V31.6778H62.5904V39.5831ZM62.5117 30.0176H63.8489V28.6737H62.5117V30.0176Z" fill="#2B313B"/>
    <path d="M66.0451 39.5831H67.2249V34.8399C67.2249 33.6541 68.2474 32.6264 69.5059 32.6264C70.6857 32.6264 71.6296 33.5751 71.6296 34.8399V39.5831H72.8094V34.8399C72.8094 32.8636 71.4723 31.5197 69.6632 31.5197C68.0901 31.5197 67.3036 32.5474 67.3036 32.5474H67.2249L67.0676 31.6778H66.0451V39.5831Z" fill="#2B313B"/>
    <path d="M78.3203 39.7412C79.972 39.7412 81.1519 38.8716 81.7024 37.3696H80.444C80.0507 38.1602 79.2641 38.6345 78.3203 38.6345C76.9988 38.6345 75.8819 37.6858 75.7246 36.1838H81.8598C81.8598 36.1838 81.9384 35.9467 81.9384 35.3142C81.9384 33.1007 80.3653 31.5197 78.3203 31.5197C76.1966 31.5197 74.5448 33.1798 74.5448 35.6304C74.5448 38.0811 76.1966 39.7412 78.3203 39.7412ZM75.7246 35.0771C75.8819 33.6541 76.9045 32.6264 78.3203 32.6264C79.6574 32.6264 80.6799 33.6541 80.7586 35.0771H75.7246Z" fill="#2B313B"/>
    <path d="M86.1827 39.7412C88.2278 39.7412 89.2503 38.7135 89.2503 37.4487C89.2503 36.1838 88.5424 35.4407 86.9693 35.1561L85.6322 34.919C84.6883 34.745 84.3737 34.3656 84.3737 33.8122C84.3737 33.1798 84.9243 32.6264 86.1041 32.6264C87.2839 32.6264 87.9918 33.2588 87.9918 33.9703H89.1717C89.1717 32.7055 87.9918 31.5197 86.1041 31.5197C84.1377 31.5197 83.1938 32.5474 83.1938 33.8122C83.1938 35.0771 83.9804 35.7886 85.3962 36.0257L86.7333 36.2629C87.6772 36.421 88.0705 36.8163 88.0705 37.4487C88.0705 38.0811 87.4412 38.6345 86.1827 38.6345C84.9243 38.6345 84.2164 38.0021 84.2164 37.2906H83.0365C83.0365 38.5554 84.2164 39.7412 86.1827 39.7412Z" fill="#2B313B"/>
    <path d="M93.4184 39.7412C95.4635 39.7412 96.486 38.7135 96.486 37.4487C96.486 36.1838 95.7781 35.4407 94.205 35.1561L92.8679 34.919C91.924 34.745 91.6094 34.3656 91.6094 33.8122C91.6094 33.1798 92.16 32.6264 93.3398 32.6264C94.5196 32.6264 95.2275 33.2588 95.2275 33.9703H96.4074C96.4074 32.7055 95.2275 31.5197 93.3398 31.5197C91.3734 31.5197 90.4295 32.5474 90.4295 33.8122C90.4295 35.0771 91.2161 35.7886 92.6319 36.0257L93.969 36.2629C94.9129 36.421 95.3062 36.8163 95.3062 37.4487C95.3062 38.0811 94.6769 38.6345 93.4184 38.6345C92.16 38.6345 91.4521 38.0021 91.4521 37.2906H90.2722C90.2722 38.5554 91.4521 39.7412 93.4184 39.7412Z" fill="#2B313B"/>
    <path d="M37.271 5.63342H40.3928L40.6892 6.96613H40.8374C41.1493 6.55198 41.5536 6.21592 42.0182 5.98461C42.4829 5.75331 42.9952 5.63306 43.5145 5.63342H46.4857V9.19035H43.8109C41.8795 9.19035 40.9879 10.0796 40.9879 12.0058V20.7526H37.271V5.63342Z" fill="#2B313B"/>
    <path d="M46.8718 13.1931C46.8718 8.59683 50.1418 5.33557 54.6022 5.33557C59.0625 5.33557 62.3302 8.59683 62.3302 13.1931C62.3302 17.7894 59.0602 21.0506 54.6022 21.0506C50.1442 21.0506 46.8718 17.7894 46.8718 13.1931ZM58.6155 13.1931C58.6155 10.5254 56.83 8.73526 54.6022 8.73526C52.3743 8.73526 50.5888 10.5137 50.5888 13.1931C50.5888 15.8725 52.372 17.6509 54.6022 17.6509C56.8323 17.6509 58.6155 15.8631 58.6155 13.1931Z" fill="#2B313B"/>
    <path d="M64.1508 0H67.8677V12.4515L73.5137 5.63331H77.8259L71.5823 13.0451L78.1223 20.7548H73.8102L67.8654 13.6387V20.7548H64.1484L64.1508 0Z" fill="#2B313B"/>
    <path d="M77.2942 13.1931C77.2942 8.59683 80.5642 5.33557 85.0245 5.33557C89.1861 5.33557 92.4561 8.59683 92.4561 12.8975C92.4617 13.3957 92.412 13.8929 92.3079 14.3803H81.0158C81.3123 16.4543 82.9473 17.9372 85.0292 17.9372C86.8124 17.9372 87.8522 16.9001 88.151 16.3065H92.0162C91.7174 17.4937 89.786 21.0506 85.0292 21.0506C80.5642 21.0506 77.2942 17.7894 77.2942 13.1931ZM88.7415 11.8604C88.4427 9.9318 87.0947 8.44897 85.0245 8.44897C82.7943 8.44897 81.4581 9.9318 81.0111 11.8604H88.7415Z" fill="#2B313B"/>
    <path d="M95.4299 17.1956V9.1903H93.0515V5.63337H95.4299V1.33276H99.1469V5.63337H102.565V9.1903H99.1469V16.4636C99.1469 17.205 99.4433 17.503 100.187 17.503H102.565V20.7642H99.2951C96.7685 20.7548 95.4299 19.4198 95.4299 17.1956Z" fill="#2B313B"/>
    <path d="M103.755 13.1931C103.755 8.59683 107.025 5.33557 111.485 5.33557C115.946 5.33557 119.213 8.59683 119.213 13.1931C119.213 17.7894 115.943 21.0506 111.485 21.0506C107.027 21.0506 103.755 17.7894 103.755 13.1931ZM115.499 13.1931C115.499 10.5254 113.716 8.73526 111.485 8.73526C109.255 8.73526 107.472 10.5137 107.472 13.1931C107.472 15.8725 109.255 17.6509 111.485 17.6509C113.716 17.6509 115.499 15.8631 115.499 13.1931Z" fill="#2B313B"/>
    <path fill-rule="evenodd" clip-rule="evenodd" d="M13.6961 7.11043C13.5678 6.99528 13.3716 7.00154 13.251 7.12463L3.6606 16.9076L0 13.3191L9.59036 3.53611C11.6317 1.4538 14.9506 1.34791 17.1205 3.29588C19.1151 5.08651 19.5109 8.06199 18.0538 10.3118L12.8755 18.307C12.7793 18.4555 12.8074 18.6521 12.9413 18.7677C13.0835 18.8905 13.2969 18.8809 13.4275 18.7457L19.9549 11.9909C20.8375 11.0775 22.0532 10.5617 23.3234 10.5617L28.0798 10.5617V15.6879L23.5109 15.6879L17.1138 22.3079C15.0932 24.399 11.7911 24.5478 9.59046 22.6471C7.51982 20.8586 7.08554 17.8169 8.57293 15.5203L13.7512 7.52513C13.8374 7.39215 13.814 7.21627 13.6961 7.11043Z" fill="#2B313B"/>
</svg>
