<svg viewBox="0 0 24 24" xmlns="http://www.w3.org/2000/svg">
  <path d="M4.00501 14C3.45698 14 2.9858 13.8062 2.59148 13.4185C2.19716 13.0242 2 12.5497 2 11.995C2 11.447 2.19716 10.9791 2.59148 10.5915C2.9858 10.1972 3.45698 10 4.00501 10C4.55305 10 5.02423 10.1972 5.41855 10.5915C5.81287 10.9791 6.01003 11.447 6.01003 11.995C6.01003 12.3626 5.91646 12.7001 5.72932 13.0075C5.54887 13.3083 5.30827 13.5489 5.00752 13.7293C4.70677 13.9098 4.3726 14 4.00501 14Z" />
  <path d="M12.2823 14C11.7343 14 11.2631 13.8062 10.8688 13.4185C10.4745 13.0242 10.2773 12.5497 10.2773 11.995C10.2773 11.447 10.4745 10.9791 10.8688 10.5915C11.2631 10.1972 11.7343 10 12.2823 10C12.8303 10 13.3015 10.1972 13.6958 10.5915C14.0902 10.9791 14.2873 11.447 14.2873 11.995C14.2873 12.3626 14.1938 12.7001 14.0066 13.0075C13.8262 13.3083 13.5856 13.5489 13.2848 13.7293C12.9841 13.9098 12.6499 14 12.2823 14Z" />
  <path d="M20.5596 14C20.0116 14 19.5404 13.8062 19.1461 13.4185C18.7517 13.0242 18.5546 12.5497 18.5546 11.995C18.5546 11.447 18.7517 10.9791 19.1461 10.5915C19.5404 10.1972 20.0116 10 20.5596 10C21.1076 10 21.5788 10.1972 21.9731 10.5915C22.3675 10.9791 22.5646 11.447 22.5646 11.995C22.5646 12.3626 22.471 12.7001 22.2839 13.0075C22.1035 13.3083 21.8629 13.5489 21.5621 13.7293C21.2614 13.9098 20.9272 14 20.5596 14Z" />
</svg>
