<svg viewBox="0 0 75 32" fill="none" xmlns="http://www.w3.org/2000/svg">
<path d="M23.9971 18.7294L22.1859 22.7956C22.0638 23.0697 22.3335 23.3547 22.6141 23.2481L29.2295 20.7356C32.8876 19.3463 37.6367 14.554 37.6367 11.8531C37.6367 9.42479 32.9285 4.2356 29.3468 3.0572L20.1091 0.0179074C19.8053 -0.0820783 19.5457 0.257266 19.7219 0.524166L21.5977 3.365C21.8076 3.68285 21.6042 4.10978 21.225 4.14729L10.3722 5.22111C10.0602 5.25198 9.95526 5.65431 10.2124 5.83355L13.1671 7.89265C13.4609 8.09743 13.4549 8.53409 13.1555 8.73067L8.71809 11.6443C8.48113 11.7999 8.20118 11.877 7.91794 11.8646L0.7123 11.5502C0.356389 11.5347 0.222292 12.0094 0.533772 12.1822L8.52294 16.6147C8.82146 16.7804 9.17167 16.8268 9.50306 16.7447L13.0404 15.8681C13.4997 15.7542 13.9852 15.8892 14.3199 16.2237L17.0136 18.916C17.3646 19.2669 17.8799 19.3969 18.3555 19.2546L23.1868 17.8086C23.7396 17.6432 24.2318 18.2024 23.9971 18.7294Z" fill="currentColor"/>
<path d="M35.6816 22.8494V31.4255C35.6816 31.7124 35.9143 31.945 36.2014 31.945H44.6678C44.9549 31.945 45.1876 31.7124 45.1876 31.4255V22.8509C45.1876 22.564 45.4203 22.3314 45.7073 22.3314L56.5007 22.3314C56.6797 22.3314 56.8461 22.4235 56.9412 22.5751L62.6943 31.7563C62.7893 31.9079 62.9557 32 63.1348 32H73.6408C74.0544 32 74.3023 31.5406 74.0751 31.1952L66.845 20.2011C66.8431 20.1982 66.8421 20.1948 66.8421 20.1913C66.8421 20.1816 66.85 20.1736 66.8597 20.1735C70.3049 20.1453 73.5303 16.9737 73.5303 11.3264C73.5303 5.05546 67.9844 1.59519 63.7931 1.59481L63.7907 1.59414V1.5759C63.7907 1.57228 63.7878 1.56934 63.7842 1.56934H36.2014C35.9892 1.56934 35.8067 1.69645 35.7259 1.87866C36.0987 5.12888 39.1243 8.65653 45.7381 8.65653L59.3029 8.65714C60.7888 8.65714 62.7546 9.88403 62.7546 12.1072C62.7546 14.1176 61.6005 15.2429 60.3735 15.2436L45.7381 15.2436V15.2489C38.5606 15.2489 35.609 19.4035 35.6879 22.8494H35.6816Z" fill="currentColor"/>
<defs>
</defs>
</svg>
