<svg width="92" height="92" viewBox="0 0 92 92" fill="none" xmlns="http://www.w3.org/2000/svg">
<path d="M67.9 55.8839V28.184C67.9 22.664 62.2999 17.254 55.3799 17.254C51.6605 17.3188 48.1114 18.8245 45.48 21.454L32.99 9.12395C36.3087 5.89418 40.2851 3.41825 44.6478 1.86507C49.0105 0.311895 53.6569 -0.281984 58.27 0.123952C74.51 1.66395 85.21 14.8139 85.21 28.5739V73.574L67.9 55.8839Z" fill="currentColor"/>
<path d="M6 17.5439V62.5439C6 76.3039 16.71 89.4539 32.94 90.9939C37.5531 91.3999 42.1995 90.806 46.5622 89.2528C50.9249 87.6996 54.9013 85.2237 58.22 81.9939L45.73 69.6639C43.0986 72.2934 39.5495 73.7991 35.83 73.864C28.91 73.864 23.31 68.4539 23.31 62.9339V35.4339" fill="currentColor"/>
<path d="M52.6998 40.734L85.1898 73.314V82.314C85.1898 85.264 82.2698 88.374 78.7598 88.434C76.7598 88.434 74.6698 86.864 73.3698 85.564L40.2998 52.324L6.00977 17.824V8.82397C6.00977 5.87397 8.92976 2.76398 12.4398 2.70398C14.4398 2.70398 16.5298 4.27397 17.8298 5.57397L52.6998 40.734Z" fill="currentColor"/>
</svg>
