<svg width="92" height="92" viewBox="0 0 92 92" fill="none" xmlns="http://www.w3.org/2000/svg">
<path d="M73.24 5.57019L54.42 33.5002C54.115 33.9033 53.974 34.407 54.0253 34.9098C54.0767 35.4127 54.3165 35.8775 54.6966 36.2107C55.0767 36.5439 55.5689 36.7209 56.0741 36.7059C56.5794 36.691 57.0603 36.4853 57.42 36.1302L75.94 20.1302C76.0468 20.0323 76.1799 19.9678 76.323 19.9449C76.466 19.922 76.6127 19.9415 76.7447 20.0012C76.8768 20.0608 76.9884 20.1579 77.0658 20.2804C77.1431 20.4028 77.1829 20.5453 77.18 20.6902V70.9802C77.1785 71.1329 77.1304 71.2815 77.0422 71.4061C76.954 71.5307 76.8298 71.6255 76.6863 71.6776C76.5428 71.7298 76.3868 71.737 76.2392 71.6981C76.0915 71.6592 75.9592 71.5762 75.86 71.4602L19.86 4.46019C18.966 3.38456 17.8475 2.51751 16.583 1.91981C15.3185 1.32211 13.9386 1.00823 12.54 1.00019H10.59C8.04657 1.00019 5.60732 2.01056 3.80885 3.80903C2.01037 5.60751 1 8.04676 1 10.5902V81.4102C1 83.9536 2.01037 86.3929 3.80885 88.1913C5.60732 89.9898 8.04657 91.0002 10.59 91.0002V91.0002C12.2288 91 13.8402 90.5798 15.2705 89.7798C16.7008 88.9798 17.9021 87.8265 18.76 86.4302L37.58 58.5002C37.885 58.0971 38.026 57.5934 37.9747 57.0905C37.9233 56.5877 37.6835 56.1229 37.3034 55.7897C36.9233 55.4564 36.4311 55.2795 35.9259 55.2944C35.4206 55.3094 34.9397 55.5151 34.58 55.8702L16.06 71.8702C15.9532 71.9681 15.8201 72.0325 15.677 72.0555C15.534 72.0784 15.3873 72.0588 15.2553 71.9992C15.1232 71.9396 15.0116 71.8425 14.9342 71.72C14.8569 71.5975 14.8171 71.455 14.82 71.3102V21.0702C14.8215 20.9175 14.8696 20.7689 14.9578 20.6443C15.046 20.5197 15.1702 20.4249 15.3137 20.3727C15.4572 20.3206 15.6132 20.3134 15.7608 20.3523C15.9085 20.3911 16.0408 20.4741 16.14 20.5902L72.14 87.5902C73.0408 88.6561 74.1634 89.5126 75.4294 90.0999C76.6955 90.6871 78.0744 90.991 79.47 90.9902H81.47C82.7294 90.9902 83.9764 90.7421 85.1399 90.2602C86.3034 89.7783 87.3606 89.0719 88.2512 88.1813C89.1417 87.2908 89.8481 86.2336 90.33 85.0701C90.8119 83.9066 91.06 82.6596 91.06 81.4002V10.5902C91.06 9.32575 90.81 8.07378 90.3243 6.90634C89.8386 5.7389 89.1269 4.67903 88.23 3.78773C87.3331 2.89643 86.2688 2.19129 85.0984 1.71289C83.9279 1.23449 82.6744 0.992277 81.41 1.00019V1.00019C79.7712 1.00038 78.1598 1.42055 76.7295 2.22059C75.2992 3.02062 74.0979 4.17384 73.24 5.57019Z" fill="currentColor"/>
</svg>
