<svg xmlns="http://www.w3.org/2000/svg" version="1.0" width="72" height="72.000000" viewBox="0 0 72.000000 72.000000" preserveAspectRatio="xMidYMid meet">
<g transform="translate(0.000000,72.000000) scale(0.100000,-0.100000)" fill="currentColor" stroke="none">
<path d="M250 630 c-74 -43 -150 -93 -169 -111 -86 -82 -78 -192 17 -219 65 -18 74 -13 41 19 -56 57 -36 98 83 167 92 52 133 86 152 124 17 32 27 88 18 94 -4 2 -68 -31 -142 -74z"/>
<path d="M261 401 c56 -57 36 -98 -83 -167 -91 -52 -133 -86 -153 -124 -17 -33 -23 -96 -9 -93 26 5 277 157 305 186 84 84 75 191 -19 217 -65 18 -74 13 -41 -19z"/>
</g>
</svg>
