<svg width="92" height="92" viewBox="0 0 92 92" fill="none" xmlns="http://www.w3.org/2000/svg">
<path d="M52.6176 12.0221C43.162 17.5166 33.4509 23.9055 31.0232 26.2055C20.0343 36.6832 21.0565 50.7388 33.1954 54.1888C41.5009 56.4888 42.6509 55.8499 38.4343 51.761C31.2787 44.4777 33.8343 39.2388 49.0398 30.4221C60.7954 23.7777 66.0343 19.4333 68.462 14.5777C70.6343 10.4888 71.912 3.33325 70.762 2.56658C70.2509 2.31103 62.0732 6.5277 52.6176 12.0221Z" fill="currentColor"/>
<path d="M54.0231 41.2833C61.1787 48.5666 58.6231 53.8055 43.4176 62.6222C31.7898 69.2666 26.4232 73.6111 23.8676 78.4666C21.6954 82.6833 20.9287 90.7333 22.7176 90.3499C26.0398 89.7111 58.112 70.2888 61.6898 66.5833C72.4231 55.8499 71.2731 42.1777 59.262 38.8555C50.9565 36.5555 49.8065 37.1944 54.0231 41.2833Z" fill="currentColor"/>
</svg>
