<svg width="26" height="24" viewBox="0 0 26 24" fill="none" xmlns="http://www.w3.org/2000/svg">
  <path d="M24.4554 6.23579C24.8554 6.93072 25.1853 7.6675 25.436 8.4375L23.5343 9.05679C23.8368 9.98553 24 10.9732 24 12C24 13.0268 23.8368 14.0145 23.5343 14.9432L25.436 15.5625C25.1853 16.3325 24.8554 17.0693 24.4554 17.7642L22.722 16.7665C21.7292 18.4916 20.2066 19.9224 18.3464 20.8501L19.239 22.6399C18.5267 22.9951 17.7743 23.2872 16.99 23.5085L16.4471 21.5836C15.4887 21.8539 14.4707 22 13.4128 22C12.355 22 11.337 21.8539 10.3786 21.5836L9.83565 23.5085C9.05135 23.2873 8.29898 22.9951 7.5867 22.6399L8.47927 20.8501C6.61905 19.9224 5.09653 18.4916 4.10365 16.7665L2.37025 17.7642C1.97029 17.0693 1.64039 16.3325 1.38964 15.5625L3.29135 14.9432C2.9889 14.0145 2.82568 13.0268 2.82568 12C2.82568 10.9732 2.9889 9.98553 3.29135 9.05679L1.38964 8.4375C1.64039 7.6675 1.97029 6.93072 2.37025 6.23579L4.10365 7.23345C5.09653 5.50837 6.61905 4.07755 8.47927 3.14986L7.5867 1.36008C8.29898 1.00486 9.05135 0.71275 9.83565 0.491521L10.3786 2.41641C11.337 2.14607 12.355 2 13.4128 2C14.4707 2 15.4887 2.14607 16.4471 2.41641L16.99 0.491521C17.7743 0.71275 18.5267 1.00486 19.239 1.36008L18.3464 3.14986C20.2066 4.07755 21.7292 5.50837 22.722 7.23345L24.4554 6.23579Z" stroke="url(#paint0_angular_490_3012)" stroke-width="4" stroke-dasharray="6 2"/>
  <defs>
    <radialGradient id="paint0_angular_490_3012" cx="0" cy="0" r="1" gradientUnits="userSpaceOnUse" gradientTransform="translate(13.4128 12) rotate(90) scale(12 12.5872)">
      <stop stop-color="#3E65F2"/>
      <stop offset="1" stop-color="#A0C2F8" stop-opacity="0"/>
    </radialGradient>
  </defs>
</svg>
